<svg xmlns="http://www.w3.org/2000/svg" xmlns:xlink="http://www.w3.org/1999/xlink" width="1080" zoomAndPan="magnify" viewBox="0 0 810 809.999993" height="1080" preserveAspectRatio="xMidYMid meet" version="1.0"><defs><clipPath id="096830a08b"><path d="M 21.144531 154.535156 L 789 154.535156 L 789 655.535156 L 21.144531 655.535156 Z M 21.144531 154.535156 " clip-rule="nonzero"/></clipPath></defs><g clip-path="url(#096830a08b)"><path fill="#FFFFFF" d="M 788.972656 551 C 737.113281 499.15625 676.683594 459.015625 609.355469 431.695312 C 602.871094 429.066406 596.324219 426.5625 589.726562 424.183594 L 589.726562 154.535156 L 461.816406 215.238281 L 461.816406 377.875 L 478.816406 370.890625 L 478.816406 227.246094 L 572.726562 185.554688 L 572.726562 418.359375 C 551.777344 411.574219 530.386719 406.054688 508.785156 401.867188 C 474.738281 395.269531 439.871094 391.925781 405.144531 391.925781 C 386.246094 391.925781 367.304688 392.925781 348.476562 394.890625 L 348.476562 180.839844 L 220.5625 241.542969 L 220.5625 404.179688 L 237.566406 397.195312 L 237.566406 253.550781 L 331.476562 211.859375 L 331.476562 396.9375 C 321.433594 398.304688 311.433594 399.945312 301.507812 401.867188 C 267.132812 408.527344 233.296875 418.566406 200.933594 431.695312 C 133.605469 459.015625 73.175781 499.15625 21.316406 551 L 33.339844 563.019531 C 88.1875 508.1875 152.238281 468.027344 220.5625 442.535156 L 220.5625 562.050781 L 237.566406 562.050781 L 237.566406 436.515625 C 268.246094 426.257812 299.695312 418.902344 331.476562 414.445312 L 331.476562 655.535156 L 348.476562 655.535156 L 348.476562 412.332031 C 386.136719 408.285156 424.152344 408.285156 461.816406 412.332031 L 461.816406 535.746094 L 478.816406 535.746094 L 478.816406 414.445312 C 510.59375 418.902344 542.042969 426.257812 572.726562 436.515625 L 572.726562 629.230469 L 589.726562 629.230469 L 589.726562 442.535156 C 658.054688 468.027344 722.105469 508.1875 776.949219 563.019531 Z M 788.972656 551 " fill-opacity="1" fill-rule="nonzero"/></g></svg>