<?xml version="1.0" standalone="no"?>
<!DOCTYPE svg PUBLIC "-//W3C//DTD SVG 20010904//EN"
 "http://www.w3.org/TR/2001/REC-SVG-20010904/DTD/svg10.dtd">
<svg version="1.0" xmlns="http://www.w3.org/2000/svg"
 width="1024.000000pt" height="1024.000000pt" viewBox="0 0 1024.000000 1024.000000"
 preserveAspectRatio="xMidYMid meet">

<g transform="translate(0.000000,1024.000000) scale(0.100000,-0.100000)"
fill="#000000" stroke="none">
<path d="M0 5120 l0 -5120 5120 0 5120 0 0 5120 0 5120 -5120 0 -5120 0 0
-5120z m5679 3985 c30 -49 107 -191 171 -315 240 -463 451 -818 899 -1510 258
-397 612 -866 928 -1228 149 -170 468 -499 609 -626 255 -231 750 -593 983
-718 l61 -33 -7 -65 c-3 -36 -7 -67 -9 -69 -1 -1 -13 6 -25 18 -13 11 -75 56
-138 98 -64 42 -165 113 -226 158 -60 45 -114 84 -120 87 -6 4 -11 -53 -14
-162 l-3 -167 33 -21 c19 -11 80 -43 136 -71 56 -28 118 -62 136 -74 19 -13
66 -33 105 -46 99 -31 117 -48 114 -102 -5 -76 -6 -668 -1 -799 l4 -125 -1860
0 c-1023 0 -2039 -4 -2257 -9 l-396 -9 -4 134 c-2 74 -1 371 0 662 4 542 4
541 42 517 13 -8 15 -82 14 -570 l-1 -561 61 6 c34 4 66 8 71 10 7 1 11 203
14 574 l3 572 -60 -7 c-53 -6 -62 -4 -81 15 -20 20 -21 31 -21 195 0 96 3 181
6 190 5 13 22 16 80 16 l74 0 0 465 0 465 -75 0 c-72 0 -76 1 -85 26 -12 31
-13 354 -1 372 6 10 29 13 85 10 l76 -3 0 445 c0 245 -4 451 -9 459 -9 14 -12
7 -88 -224 l-46 -140 -1 -259 c-1 -238 -2 -260 -19 -270 -15 -9 -21 -7 -33 9
-13 17 -15 65 -12 310 l3 290 28 75 c34 89 87 240 87 246 0 2 -20 4 -44 4
l-43 0 -7 46 c-3 26 -6 121 -6 212 l0 165 73 -6 74 -5 32 126 c29 113 56 187
123 330 11 23 18 49 15 56 -3 7 -46 74 -95 147 -49 74 -105 160 -125 191 -20
31 -51 74 -70 95 -19 21 -38 48 -41 61 -14 44 -95 176 -100 162 -2 -8 -7 -27
-10 -43 -7 -29 -10 -7366 -4 -7373 3 -2 182 -4 399 -4 l394 -1 -1 26 c0 14 -1
100 -2 192 l-2 166 -199 -6 c-110 -4 -256 -4 -325 0 l-126 6 0 84 c0 115 7
127 167 295 l63 68 -106 110 -107 110 12 54 c10 47 24 67 106 157 l94 103 -77
80 c-141 148 -162 179 -146 220 13 34 48 11 189 -122 39 -37 83 -78 99 -92
l28 -25 25 30 c13 17 43 53 65 80 22 28 45 53 52 57 9 5 89 -24 105 -38 3 -3
-30 -40 -141 -157 -16 -16 -28 -33 -28 -37 0 -5 44 -54 98 -109 95 -98 98
-100 132 -93 l35 8 0 94 c0 52 1 135 3 184 l2 88 65 -61 c36 -33 70 -61 75
-61 6 0 10 -260 10 -707 l0 -708 285 3 c159 1 305 -2 332 -7 45 -9 44 -10 -32
-8 l-80 2 3 -75 c2 -41 8 -79 13 -85 7 -6 285 -11 787 -12 l777 -2 0 -53 0
-53 -2687 -3 -2688 -2 0 55 0 55 598 0 c330 0 667 3 750 7 l151 6 3 86 3 86
311 3 311 2 7 473 c3 259 6 660 6 889 l-1 418 -67 0 c-37 -1 -110 -5 -162 -10
-52 -4 -230 -20 -395 -35 -262 -23 -918 -99 -1075 -125 -178 -29 -732 -135
-1172 -224 -71 -14 -185 -37 -255 -51 -69 -14 -128 -26 -129 -28 -6 -6 -13
-892 -7 -915 5 -22 6 -22 219 -22 l214 0 0 95 0 95 -67 1 c-38 1 -120 4 -183
8 l-115 6 -3 58 c-3 64 9 89 85 162 l36 35 -38 38 c-20 20 -48 53 -62 73 -23
35 -23 39 -9 72 8 20 34 57 57 82 l42 46 -41 42 c-46 47 -57 83 -29 101 16 9
25 3 67 -42 27 -28 52 -52 56 -52 4 0 38 32 75 70 38 39 72 70 78 70 5 0 19
-9 32 -19 l24 -20 -78 -79 -78 -79 25 -16 c14 -10 41 -33 60 -52 20 -19 44
-35 55 -35 17 0 20 11 27 120 l9 119 41 -18 c31 -14 43 -26 47 -47 3 -16 3
-212 0 -437 l-6 -407 156 0 157 0 0 -54 0 -54 -635 2 -635 1 0 51 0 51 141 7
c77 3 145 4 150 1 5 -4 9 170 9 448 l0 454 -62 -14 c-35 -8 -128 -37 -207 -64
-80 -27 -151 -49 -158 -49 -11 0 -13 15 -11 62 l3 63 50 17 50 16 -4 474 c-2
260 -7 527 -10 593 -7 119 -7 120 -20 75 -20 -71 -70 -172 -81 -165 -21 13
-11 105 19 173 16 37 55 159 86 272 31 113 70 248 85 300 30 98 80 308 145
605 21 94 46 204 57 245 11 41 24 107 29 145 5 39 16 108 24 155 8 47 15 109
15 138 l0 52 44 0 44 0 -6 -45 c-2 -26 2 -70 11 -103 9 -31 20 -97 26 -147 7
-49 28 -158 48 -241 l36 -152 36 -6 c20 -3 54 -6 77 -6 l41 0 6 206 c3 114 10
211 15 216 27 27 32 -8 32 -206 l0 -203 61 -7 c34 -4 64 -4 68 -1 8 9 8 254
-2 343 -6 58 -5 72 7 72 7 0 16 -10 20 -22 5 -22 6 -22 20 -3 14 17 17 18 27
5 11 -16 11 -16 -13 110 l-12 65 -9 -64 -9 -64 -52 7 c-28 3 -113 6 -188 6
l-137 0 -11 43 c-5 23 -18 62 -28 87 l-18 45 160 -3 c89 -2 185 0 214 3 49 6
52 8 52 36 0 27 2 29 40 29 l40 0 0 -47 c1 -151 172 -770 273 -985 74 -159
192 -338 223 -338 7 0 65 51 127 113 191 188 352 450 672 1092 215 432 347
721 600 1315 196 460 201 474 447 1105 100 258 290 777 308 844 6 24 22 54 36
68 13 13 24 31 24 39 0 8 7 30 15 50 17 41 63 64 130 64 44 0 45 0 74 -57 16
-32 65 -114 110 -183 45 -69 100 -156 123 -195 72 -122 151 -243 222 -341 l68
-95 28 78 c39 112 97 252 115 279 23 36 45 31 45 -10 0 -31 -16 -75 -111 -319
-28 -69 -29 -80 -16 -95 8 -9 34 -51 57 -92 24 -41 64 -104 89 -140 l46 -65 7
65 c5 36 7 203 5 372 -1 170 -2 309 -2 309 0 1 -108 4 -239 8 l-239 6 -16 50
c-9 28 -40 82 -68 120 -47 65 -83 126 -83 140 0 3 146 4 325 3 l325 -3 0 47
c0 62 6 75 49 104 64 44 87 33 150 -71z m-219 -840 c0 -213 -7 -275 -24 -212
-8 30 -8 308 0 386 14 128 24 53 24 -174z m-609 -2375 c4 -47 6 -246 5 -443
-3 -376 -3 -382 -46 -374 -13 2 -15 60 -15 455 l0 453 25 -3 c24 -3 25 -7 31
-88z m-3486 -424 c7 -133 -1 -275 -15 -259 -18 20 -32 165 -26 255 14 185 31
187 41 4z"/>
<path d="M5640 8357 l0 -648 38 -65 c20 -36 51 -84 69 -107 18 -23 75 -105
128 -182 52 -77 106 -152 118 -167 l22 -27 0 572 c0 568 0 572 -21 607 -12 19
-52 95 -88 168 -37 72 -68 132 -69 132 -1 0 -1 -188 1 -417 4 -491 -4 -743
-23 -743 -39 0 -40 12 -40 589 0 421 3 564 13 590 11 32 9 40 -37 135 -27 56
-56 117 -64 136 -8 19 -22 44 -31 55 -14 18 -15 -36 -16 -628z"/>
<path d="M4480 8946 c0 -40 -45 -185 -92 -295 -22 -51 -48 -121 -58 -155 -10
-33 -34 -106 -54 -161 -26 -73 -32 -101 -23 -107 9 -5 13 -212 17 -850 3 -464
6 -845 8 -848 12 -27 92 205 107 310 3 25 7 443 8 930 2 724 5 889 16 910 l14
24 11 -24 c8 -18 12 -286 14 -882 2 -763 4 -857 18 -851 16 6 16 2 -8 -91 -11
-43 -12 -2941 -1 -3218 4 -124 9 -168 18 -168 7 0 15 6 18 13 6 18 0 5478 -7
5485 -3 3 -6 -7 -6 -22z"/>
<path d="M5147 8168 c-41 -118 -96 -306 -102 -351 l-7 -48 88 3 89 3 0 192 c0
190 0 193 -25 223 l-25 30 -18 -52z"/>
<path d="M6078 8154 c-3 -22 -3 -160 -1 -309 2 -148 0 -378 -4 -510 l-9 -240
50 -75 c42 -64 104 -149 154 -210 10 -12 11 91 6 525 l-5 540 -27 40 c-14 22
-44 72 -65 110 -22 39 -52 92 -67 119 l-28 48 -4 -38z"/>
<path d="M4131 7966 c-60 -167 -72 -211 -66 -238 9 -40 11 -442 13 -2620 l2
-1658 60 0 60 0 1 1488 c1 818 2 1880 3 2359 0 480 1 873 0 873 -1 0 -34 -92
-73 -204z"/>
<path d="M5270 7961 c0 -59 3 -128 6 -152 l6 -44 88 0 c49 0 92 3 96 7 4 5 -5
25 -20 45 -15 21 -59 86 -98 146 -38 59 -72 107 -74 107 -2 0 -4 -49 -4 -109z"/>
<path d="M6336 7240 c7 -611 -7 -528 113 -675 37 -44 73 -92 82 -105 16 -23
17 5 13 420 -6 566 -7 576 -47 631 -18 24 -62 93 -99 153 l-68 111 6 -535z"/>
<path d="M3985 7620 c-4 -19 -27 -88 -51 -152 l-45 -117 1 -1957 c0 -1077 1
-1959 3 -1960 1 -1 29 1 62 4 l60 7 -3 2082 c-1 1145 -6 2092 -11 2105 -8 22
-9 21 -16 -12z"/>
<path d="M5640 5529 l0 -2000 64 2 64 2 4 1901 4 1901 -44 60 c-24 33 -53 76
-63 97 -11 21 -22 38 -24 38 -3 0 -5 -900 -5 -2001z"/>
<path d="M5088 7343 l-28 -4 0 -470 0 -469 75 0 75 0 0 475 0 475 -47 -1 c-27
-1 -60 -4 -75 -6z"/>
<path d="M5270 6872 c0 -428 2 -474 16 -468 9 3 42 6 73 6 l58 0 5 451 c5 419
10 496 32 461 3 -5 7 -212 8 -460 2 -342 6 -452 15 -452 9 0 11 109 10 460 -2
397 -4 462 -17 471 -8 5 -57 8 -107 7 l-93 -3 0 -473z"/>
<path d="M6605 7005 c3 -187 8 -410 10 -495 l3 -155 108 -122 c59 -68 108
-123 108 -123 1 0 0 199 -1 442 l-3 441 -53 81 c-30 45 -78 119 -107 166 -29
47 -58 90 -63 95 -5 6 -6 -124 -2 -330z"/>
<path d="M5838 6079 c-1 -646 -1 -1481 0 -1856 l4 -683 82 0 83 0 6 242 c4
133 7 906 7 1719 l0 1478 -89 137 -89 137 -4 -1174z"/>
<path d="M3796 7145 c-10 -33 -38 -102 -62 -154 -24 -51 -40 -98 -37 -105 4
-6 8 -788 9 -1739 0 -950 3 -1728 5 -1730 2 -2 30 -1 62 1 l57 4 -1 1796 c-1
989 -4 1840 -8 1892 l-6 95 -19 -60z"/>
<path d="M6898 6467 l4 -442 101 -103 102 -102 5 387 5 388 -58 80 c-31 44
-81 114 -110 157 l-53 76 4 -441z"/>
<path d="M6080 5223 l0 -1683 95 0 95 0 0 179 c0 99 3 188 6 198 4 10 -7 2
-24 -17 l-31 -35 -1 28 c0 20 11 40 33 61 l32 33 -5 1324 -5 1324 -86 115
c-47 63 -90 124 -97 135 -9 15 -11 -385 -12 -1662z"/>
<path d="M3611 6722 c-13 -37 -42 -110 -66 -162 l-43 -95 -2 -1501 c-1 -825 2
-1517 5 -1537 l7 -37 57 6 c31 4 59 10 63 13 7 6 12 3370 6 3377 -2 1 -14 -27
-27 -64z"/>
<path d="M4362 6601 c-13 -31 -39 -96 -58 -145 l-34 -90 0 -1353 c1 -744 4
-1398 7 -1454 l6 -100 56 7 c31 3 56 7 57 8 0 0 -2 717 -5 1592 l-6 1591 -23
-56z"/>
<path d="M6340 5269 l0 -1272 48 7 c54 7 90 -10 79 -38 -5 -12 -20 -16 -69
-16 l-63 0 3 -200 3 -201 102 3 102 3 1 1371 0 1371 -38 44 c-21 24 -66 79
-99 122 -33 42 -62 77 -64 77 -3 0 -5 -572 -5 -1271z"/>
<path d="M7178 6128 l-3 -383 100 -97 c55 -54 103 -98 108 -98 4 0 7 158 7
350 l0 350 -46 57 c-26 31 -69 90 -97 130 -28 40 -54 73 -59 73 -4 0 -8 -172
-10 -382z"/>
<path d="M3424 6314 c-13 -43 -59 -153 -87 -209 l-29 -60 -5 -1343 -6 -1342
29 5 c16 2 45 7 65 10 l36 5 7 1471 c4 809 5 1473 2 1476 -3 3 -8 -3 -12 -13z"/>
<path d="M6620 5705 c-1 -1191 1 -2149 4 -2153 3 -2 49 -1 104 3 l99 7 8 180
c3 99 4 182 1 185 -13 13 -28 -59 -32 -157 -3 -58 -8 -125 -11 -150 l-6 -45
-9 35 c-4 19 -5 99 -2 177 5 113 10 148 25 173 10 16 22 30 26 30 5 0 7 188 5
417 -1 230 1 672 5 983 8 557 8 565 -12 585 -25 24 -140 159 -177 206 l-27 34
-1 -510z"/>
<path d="M7455 5828 l0 -342 105 -90 105 -90 6 99 c4 55 7 190 8 301 l1 200
-67 81 c-38 45 -86 104 -108 132 -22 28 -42 51 -45 51 -3 0 -5 -154 -5 -342z"/>
<path d="M5058 5533 c1 -257 5 -469 7 -471 2 -2 35 -1 73 3 l69 7 7 155 c4 85
4 294 0 464 l-7 309 -76 0 -76 0 3 -467z"/>
<path d="M5270 5529 l0 -471 31 6 c17 3 51 6 75 6 l44 0 0 460 0 460 25 0 25
0 -2 -460 c-2 -363 0 -460 10 -460 9 0 12 97 12 449 0 247 -3 456 -6 465 -5
13 -25 16 -110 16 l-104 0 0 -471z"/>
<path d="M3216 5856 c-10 -26 -38 -88 -62 -138 l-44 -89 0 -1148 0 -1148 59
10 59 9 6 322 c4 176 6 751 4 1276 -3 946 -3 955 -22 906z"/>
<path d="M6898 4951 l-3 -941 59 6 c61 7 76 0 76 -38 0 -14 -8 -18 -37 -18
-21 0 -55 -3 -75 -6 -32 -6 -36 -9 -28 -25 6 -10 10 -100 10 -200 l0 -182 68
6 c37 4 84 7 105 7 l37 0 1 1023 c0 562 4 1031 8 1042 6 16 -6 36 -63 100 -39
44 -82 94 -96 110 -14 17 -33 36 -43 44 -16 13 -17 -40 -19 -928z"/>
<path d="M7747 5774 c-4 -42 -7 -179 -7 -303 l1 -226 97 -72 c117 -86 131 -93
125 -61 -2 13 0 128 4 256 l8 233 -33 32 c-26 25 -110 122 -182 210 -4 4 -10
-27 -13 -69z"/>
<path d="M7187 5593 c-4 -3 -7 -463 -7 -1020 l0 -1015 94 4 93 3 7 95 c3 52 5
115 4 140 -1 43 -1 42 -8 -15 -4 -33 -8 -93 -9 -132 -1 -68 -13 -95 -27 -58
-11 28 23 344 40 370 14 22 16 96 16 692 0 367 5 686 10 707 8 36 6 41 -18 60
-15 11 -63 55 -108 98 -44 43 -84 75 -87 71z"/>
<path d="M8036 5423 c-8 -161 -10 -369 -2 -381 14 -22 189 -133 197 -125 4 4
12 98 17 208 l8 200 -100 105 c-56 58 -104 106 -107 108 -3 1 -9 -50 -13 -115z"/>
<path d="M1754 5495 c46 -220 46 -204 56 -1329 6 -588 11 -1071 13 -1072 1 -1
23 2 49 8 l47 11 3 896 3 896 -37 130 c-20 72 -57 209 -83 305 -26 96 -49 177
-52 180 -3 3 -2 -8 1 -25z"/>
<path d="M3016 5465 c-11 -27 -38 -90 -62 -139 -24 -49 -41 -93 -38 -98 3 -5
5 -439 4 -964 l-1 -955 38 6 c21 3 47 8 59 10 l21 5 5 927 c4 511 3 1002 0
1093 l-7 165 -19 -50z"/>
<path d="M1071 5298 c-22 -178 -40 -299 -67 -437 -18 -96 -24 -148 -19 -180 4
-25 9 -441 11 -925 4 -741 6 -877 18 -873 8 3 32 11 55 18 l41 12 -3 1226 c-3
1249 -7 1396 -36 1159z"/>
<path d="M7455 4711 c0 -361 -3 -670 -7 -686 l-7 -30 92 0 c86 0 92 -1 95 -21
3 -20 -3 -22 -89 -29 l-92 -7 6 -96 c4 -54 7 -139 7 -190 l0 -93 105 3 105 3
0 30 c0 17 2 370 3 785 2 415 6 762 10 770 5 11 -12 32 -60 72 -38 31 -90 77
-118 101 l-50 44 0 -656z"/>
<path d="M1231 5285 c-3 -138 0 -2339 3 -2343 2 -2 21 1 43 7 l38 10 -3 148
c-1 82 1 229 5 328 8 176 8 180 31 183 l22 3 0 -320 c0 -177 1 -321 3 -321 1
0 22 6 47 14 l45 13 7 297 c3 163 8 303 11 310 7 17 -32 26 -107 26 -96 0 -96
1 -96 96 0 72 3 87 20 101 19 16 20 30 20 239 0 122 3 236 6 253 6 29 26 41
38 23 2 -4 6 -122 7 -261 l2 -253 44 5 c24 2 46 7 49 10 3 3 8 115 11 249 3
136 10 249 16 256 7 9 -10 12 -79 12 -49 0 -95 4 -103 9 -12 8 -12 50 -2 277
15 352 15 334 -9 334 -11 0 -20 6 -20 13 0 6 -5 46 -11 87 -5 41 -12 98 -14
125 -2 28 -8 68 -13 90 l-10 40 -1 -60z"/>
<path d="M8311 5137 c-1 -83 -6 -178 -10 -210 -7 -55 -7 -59 18 -76 56 -39
154 -92 159 -86 4 3 8 79 10 168 2 89 8 168 12 176 5 10 -5 24 -31 45 -21 17
-65 55 -98 83 l-58 53 -2 -153z"/>
<path d="M2815 5083 c-16 -37 -47 -96 -68 -131 -25 -41 -36 -70 -32 -80 4 -9
6 -371 5 -804 l-1 -787 58 6 c32 3 61 8 64 12 9 9 20 1851 12 1851 -5 0 -21
-31 -38 -67z"/>
<path d="M7745 5027 c-3 -56 -5 -408 -3 -782 l3 -680 105 0 105 0 1 195 c6
959 9 1173 22 1178 7 2 -5 15 -27 30 -22 15 -75 57 -119 94 l-80 66 -7 -101z"/>
<path d="M8547 5043 c-4 -27 -7 -111 -8 -188 l-2 -140 52 -37 c52 -36 137 -75
146 -67 2 3 5 78 5 168 l2 164 -93 73 c-51 41 -94 74 -95 74 -1 0 -4 -21 -7
-47z"/>
<path d="M1448 4992 c-91 -3 -87 3 -59 -117 20 -84 20 -111 -1 -54 l-13 34 -6
-65 c-4 -36 -7 -102 -8 -147 l-1 -83 63 0 62 0 2 183 c2 172 11 237 31 237 14
0 22 -105 22 -272 l0 -149 53 3 52 3 0 175 c0 120 4 181 12 195 12 19 16 -51
18 -313 0 -23 3 -42 8 -42 9 0 9 190 0 323 l-6 98 -75 -3 c-41 -2 -110 -4
-154 -6z"/>
<path d="M8030 4454 l0 -455 23 7 c31 11 159 5 174 -8 10 -8 13 41 13 244 0
140 3 309 7 376 5 106 8 121 24 124 12 2 -25 32 -105 86 -68 45 -126 82 -129
82 -4 0 -7 -205 -7 -456z"/>
<path d="M1950 4850 c0 -3 6 -26 14 -51 11 -37 15 -200 18 -858 l3 -812 40 7
c82 13 75 -54 76 677 1 359 4 663 8 676 l7 25 22 -28 c26 -34 24 40 22 -750
l-1 -578 27 6 c14 4 39 10 54 13 27 5 29 9 35 67 3 33 5 288 3 566 -3 557 -1
532 -68 605 -49 53 -119 164 -169 268 -44 94 -91 179 -91 167z"/>
<path d="M2619 4768 c-12 -24 -37 -64 -55 -91 l-34 -47 0 -694 0 -693 58 11
57 12 6 69 c11 120 10 1475 -1 1475 -5 0 -19 -19 -31 -42z"/>
<path d="M8309 4621 c2 -64 -2 -324 -9 -579 -7 -255 -11 -465 -9 -466 2 -2 43
-6 91 -10 l86 -6 4 153 c4 187 -9 824 -18 890 -6 46 -9 48 -78 90 l-71 44 4
-116z"/>
<path d="M5123 4653 l-63 -4 0 -570 0 -570 68 3 67 3 8 175 c11 221 12 346 9
693 -1 215 -5 277 -14 275 -7 -1 -41 -3 -75 -5z"/>
<path d="M5307 4653 c-26 -2 -45 -7 -43 -12 3 -4 6 -170 7 -369 l2 -361 57 6
c53 5 58 4 65 -16 9 -30 4 -34 -59 -39 l-53 -4 -7 -52 c-3 -28 -6 -105 -6
-170 l0 -119 72 7 c39 3 73 8 74 9 4 4 7 358 5 735 l-1 392 -32 -2 c-18 -1
-54 -3 -81 -5z"/>
<path d="M5464 4634 c3 -9 7 -262 8 -562 1 -405 3 -498 9 -357 3 105 7 358 8
563 1 336 -1 372 -15 372 -11 0 -14 -5 -10 -16z"/>
<path d="M917 4553 c-8 -27 -20 -77 -27 -113 -6 -36 -30 -136 -52 -224 -38
-147 -40 -162 -28 -200 9 -31 14 -185 17 -614 4 -466 7 -573 18 -568 7 2 32
10 55 17 l42 13 -3 868 c-2 477 -4 868 -5 868 -2 0 -9 -21 -17 -47z"/>
<path d="M8523 4518 c6 -46 10 -277 11 -514 l1 -432 89 -6 c49 -4 90 -6 91 -4
2 2 5 92 7 201 l3 197 -62 0 c-47 0 -63 4 -63 14 0 22 21 33 77 41 l51 7 7 91
c3 51 5 153 3 227 l-3 135 -109 62 c-60 35 -109 63 -110 63 -1 0 2 -37 7 -82z"/>
<path d="M2434 4548 c-4 -13 -31 -46 -62 -74 -49 -46 -53 -53 -43 -73 9 -16
12 -177 11 -617 -1 -567 0 -595 17 -586 10 5 36 13 59 16 l41 7 7 82 c3 45 6
301 6 568 0 607 -8 764 -36 677z"/>
<path d="M8791 4031 c-2 -229 -1 -427 3 -439 7 -21 13 -22 117 -22 l109 0 -2
178 -3 177 -49 12 c-26 7 -51 15 -54 18 -15 15 33 38 97 48 l72 12 -3 122 c-2
68 0 123 3 123 4 0 12 -7 19 -15 9 -11 11 -41 5 -115 l-7 -100 32 0 c39 0 70
-16 70 -35 0 -12 -14 -15 -61 -15 l-62 0 7 -37 c3 -21 6 -113 6 -205 l0 -168
78 0 77 0 1 309 1 309 -33 16 c-19 8 -95 54 -171 102 -76 47 -162 98 -193 114
l-55 28 -4 -417z"/>
<path d="M1530 4110 l0 -260 35 -1 c19 -1 41 -2 48 -3 9 -1 12 24 12 94 1 182
17 400 30 400 17 0 25 -98 25 -307 0 -109 4 -173 10 -173 12 0 13 224 3 398
l-6 112 -79 0 -78 0 0 -260z"/>
<path d="M8048 3952 c-9 -2 -18 -9 -21 -15 -2 -7 -2 -94 1 -194 l5 -181 92 1
92 2 7 95 c10 160 8 280 -6 285 -19 5 -151 12 -170 7z"/>
<path d="M1530 3631 c-2 -33 1 -605 3 -607 1 -1 23 3 50 9 l47 10 0 284 c0
271 1 283 19 283 11 0 21 -9 24 -22 2 -13 5 -135 6 -273 1 -137 3 -250 5 -252
5 -6 66 19 66 27 0 4 -7 41 -15 81 -8 41 -19 159 -24 262 -4 103 -11 191 -15
194 -8 8 -166 12 -166 4z"/>
<path d="M5064 2733 c-33 -38 -69 -76 -81 -86 -13 -10 -23 -26 -23 -35 0 -21
156 -202 174 -202 14 0 192 188 185 195 -2 2 -46 47 -97 99 -51 53 -94 96 -96
96 -2 0 -30 -30 -62 -67z"/>
<path d="M1406 2547 c-25 -23 -46 -47 -46 -53 0 -11 92 -104 103 -104 8 0 117
106 117 114 0 7 -109 86 -119 86 -5 0 -30 -19 -55 -43z"/>
<path d="M5397 2523 c-20 -16 -68 -63 -108 -106 l-71 -77 40 -48 c51 -60 220
-227 224 -221 2 2 2 111 0 242 l-3 237 -23 0 c-12 0 -39 -12 -59 -27z"/>
<path d="M1578 2403 l-66 -56 71 -79 c40 -43 75 -78 78 -78 14 0 16 29 11 148
-3 83 -8 122 -16 122 -7 0 -42 -25 -78 -57z"/>
<path d="M1450 2287 c-21 -17 -120 -133 -120 -141 0 -3 61 -6 135 -6 74 0 135
3 135 8 0 4 -31 39 -68 79 -56 60 -69 70 -82 60z"/>
<path d="M5043 2183 c-100 -112 -144 -168 -136 -177 11 -10 461 -7 468 4 6 9
-230 260 -245 260 -4 0 -43 -39 -87 -87z"/>
</g>
</svg>
