<?xml version="1.0" encoding="UTF-8"?>
<!DOCTYPE svg PUBLIC "-//W3C//DTD SVG 1.1//EN" "http://www.w3.org/Graphics/SVG/1.1/DTD/svg11.dtd">
<svg xmlns="http://www.w3.org/2000/svg" version="1.1" width="250px" height="57px" style="shape-rendering:geometricPrecision; text-rendering:geometricPrecision; image-rendering:optimizeQuality; fill-rule:evenodd; clip-rule:evenodd" xmlns:xlink="http://www.w3.org/1999/xlink">
<g><path style="opacity:1" fill="#fcf7f5" d="M 40.5,-0.5 C 57.5,-0.5 74.5,-0.5 91.5,-0.5C 89.3814,2.641 89.3814,5.97434 91.5,9.5C 91.1667,9.83333 90.8333,10.1667 90.5,10.5C 89.316,8.95392 88.316,7.28725 87.5,5.5C 86.645,7.6077 85.9784,9.77436 85.5,12C 85.1639,13.0299 84.4972,13.5299 83.5,13.5C 84.3234,10.5394 84.99,7.53941 85.5,4.5C 86.4345,3.43236 86.7678,2.09903 86.5,0.5C 83.1501,0.334989 79.8168,0.501655 76.5,1C 75.287,3.68651 74.6203,6.51984 74.5,9.5C 74.5,9.83333 74.5,10.1667 74.5,10.5C 73.6605,12.7917 72.6605,15.125 71.5,17.5C 68.7263,12.3127 66.0596,7.14608 63.5,2C 59.8484,1.50137 56.1817,1.3347 52.5,1.5C 51.4564,8.3412 49.7897,15.0079 47.5,21.5C 47.5,22.8333 47.5,24.1667 47.5,25.5C 46.6554,26.6715 45.9887,28.0048 45.5,29.5C 44.2436,29.9038 43.0769,30.5705 42,31.5C 41.5,31.1667 41,30.8333 40.5,30.5C 40.1556,27.9639 39.1556,25.7972 37.5,24C 39.9305,21.6954 40.9305,18.8621 40.5,15.5C 41.6491,15.2089 42.3158,14.3756 42.5,13C 40.963,10.9621 39.6297,8.79541 38.5,6.5C 41.2106,4.15334 40.544,2.65334 36.5,2C 38.0664,1.3918 39.3998,0.558465 40.5,-0.5 Z"/></g>
<g><path style="opacity:1" fill="#fbfaf8" d="M 91.5,-0.5 C 109.833,-0.5 128.167,-0.5 146.5,-0.5C 145.398,0.744925 144.398,2.07826 143.5,3.5C 144.128,5.25814 145.128,6.75814 146.5,8C 144.167,8.33333 141.833,8.66667 139.5,9C 143.633,8.90637 147.299,9.7397 150.5,11.5C 150.664,14.1873 150.497,16.854 150,19.5C 148.57,19.3062 147.07,19.3062 145.5,19.5C 144.702,19.0431 144.369,18.3764 144.5,17.5C 146.144,15.5193 147.81,13.5193 149.5,11.5C 147.667,11.1667 145.833,10.8333 144,10.5C 141.705,10.5465 139.871,11.2132 138.5,12.5C 134.633,17.028 132.299,16.3613 131.5,10.5C 127.833,10.5 124.167,10.5 120.5,10.5C 120.5,11.5 120.5,12.5 120.5,13.5C 119.504,13.4142 118.671,13.7476 118,14.5C 116.22,12.7071 114.387,11.0404 112.5,9.5C 115.167,8.5 115.167,7.5 112.5,6.5C 111.749,7.37598 111.249,8.37598 111,9.5C 107.399,8.18016 103.899,8.18016 100.5,9.5C 98.597,9.79586 96.9303,10.4625 95.5,11.5C 87.9024,15.6939 84.9024,22.0272 86.5,30.5C 85.8826,30.3893 85.3826,30.056 85,29.5C 84.8184,26.7737 84.3184,24.1071 83.5,21.5C 82.6922,23.4233 82.1922,25.4233 82,27.5C 81.5831,28.756 80.7498,29.4226 79.5,29.5C 80.8333,24.1667 82.1667,18.8333 83.5,13.5C 84.4972,13.5299 85.1639,13.0299 85.5,12C 85.9784,9.77436 86.645,7.6077 87.5,5.5C 88.316,7.28725 89.316,8.95392 90.5,10.5C 90.8333,10.1667 91.1667,9.83333 91.5,9.5C 89.3814,5.97434 89.3814,2.641 91.5,-0.5 Z"/></g>
<g><path style="opacity:1" fill="#f5fbfb" d="M 146.5,-0.5 C 172.167,-0.5 197.833,-0.5 223.5,-0.5C 223.5,-0.166667 223.5,0.166667 223.5,0.5C 214.112,-1.98663 208.446,1.3467 206.5,10.5C 205.167,10.5 203.833,10.5 202.5,10.5C 202.326,12.861 201.993,15.1944 201.5,17.5C 202.5,17.5 203.5,17.5 204.5,17.5C 203.387,21.2376 202.387,24.9042 201.5,28.5C 201.315,26.8042 200.481,25.4709 199,24.5C 197.417,28.4963 195.584,32.163 193.5,35.5C 195.845,28.2727 197.345,20.9394 198,13.5C 192.86,8.31003 187.527,8.31003 182,13.5C 181.517,12.552 181.351,11.552 181.5,10.5C 178.5,10.5 175.5,10.5 172.5,10.5C 170.966,18.9668 168.966,27.3002 166.5,35.5C 164.451,34.3586 162.451,34.3586 160.5,35.5C 162.854,24.0846 165.521,12.7512 168.5,1.5C 164.893,0.510775 161.226,0.177442 157.5,0.5C 156.278,7.06086 154.611,13.3942 152.5,19.5C 152.663,17.1432 152.497,14.8098 152,12.5C 151.617,11.944 151.117,11.6107 150.5,11.5C 147.299,9.7397 143.633,8.90637 139.5,9C 141.833,8.66667 144.167,8.33333 146.5,8C 145.128,6.75814 144.128,5.25814 143.5,3.5C 144.398,2.07826 145.398,0.744925 146.5,-0.5 Z"/></g>
<g><path style="opacity:1" fill="#f8fcfa" d="M 223.5,0.5 C 223.5,0.166667 223.5,-0.166667 223.5,-0.5C 232.167,-0.5 240.833,-0.5 249.5,-0.5C 249.5,18.5 249.5,37.5 249.5,56.5C 246.167,56.5 242.833,56.5 239.5,56.5C 239.631,55.6236 239.298,54.9569 238.5,54.5C 235.98,55.0216 233.314,55.0216 230.5,54.5C 229.167,53.5 229.167,52.5 230.5,51.5C 232.806,51.6457 235.139,51.979 237.5,52.5C 239.127,50.3973 241.127,50.064 243.5,51.5C 245.355,51.6598 246.688,50.9931 247.5,49.5C 246.391,48.71 245.058,48.21 243.5,48C 245.134,47.5065 246.801,47.3398 248.5,47.5C 249.167,43.5 247.5,41.8333 243.5,42.5C 242.167,42.5 240.833,42.5 239.5,42.5C 238.167,42.5 236.833,42.5 235.5,42.5C 233.304,42.4348 231.304,41.7681 229.5,40.5C 230.882,38.4514 232.548,36.7847 234.5,35.5C 246.196,32.4409 250.363,25.1075 247,13.5C 239.052,8.1728 231.219,8.50613 223.5,14.5C 222.624,14.6309 221.957,14.2975 221.5,13.5C 222.167,12.5 222.833,11.5 223.5,10.5C 222.092,9.75675 220.759,8.92342 219.5,8C 221.058,7.78997 222.391,7.28997 223.5,6.5C 223.877,4.74203 224.544,3.07536 225.5,1.5C 225.043,0.702451 224.376,0.369118 223.5,0.5 Z"/></g>
<g><path style="opacity:1" fill="#d75e5e" d="M 85.5,4.5 C 83.0122,2.61216 80.0122,1.9455 76.5,2.5C 76.6621,4.5273 76.4955,6.5273 76,8.5C 75.6174,9.05596 75.1174,9.38929 74.5,9.5C 74.6203,6.51984 75.287,3.68651 76.5,1C 79.8168,0.501655 83.1501,0.334989 86.5,0.5C 86.7678,2.09903 86.4345,3.43236 85.5,4.5 Z"/></g>
<g><path style="opacity:1" fill="#e88988" d="M 100.5,9.5 C 103.385,9.1936 106.052,9.52693 108.5,10.5C 104.131,10.4672 99.7978,10.8005 95.5,11.5C 96.9303,10.4625 98.597,9.79586 100.5,9.5 Z"/></g>
<g><path style="opacity:1" fill="#2473b2" d="M 6.5,9.5 C 5.06805,11.3271 3.40138,12.9937 1.5,14.5C 0.818153,13.7573 0.151487,13.0906 -0.5,12.5C -0.5,10.5 -0.5,8.5 -0.5,6.5C 4.39013,2.35974 10.0568,0.859745 16.5,2C 12.7238,3.94739 9.39043,6.44739 6.5,9.5 Z"/></g>
<g><path style="opacity:1" fill="#f9f1f0" d="M -0.5,-0.5 C 5.83333,-0.5 12.1667,-0.5 18.5,-0.5C 18.5,0.833333 18.5,2.16667 18.5,3.5C 19.8221,3.33003 20.9887,3.66337 22,4.5C 22.6667,10.8333 22.6667,17.1667 22,23.5C 21.7216,24.4158 21.2216,25.0825 20.5,25.5C 20.2417,27.8098 20.2417,29.8098 20.5,31.5C 19.656,33.7593 17.9893,34.7593 15.5,34.5C 13.9826,34.4894 12.8159,33.8228 12,32.5C 10.9153,34.6574 9.74866,34.8241 8.5,33C 9.86634,30.5615 9.36634,30.0615 7,31.5C 5.66934,30.0042 4.16934,28.6709 2.5,27.5C 4.72059,24.0568 5.05393,20.3901 3.5,16.5C 4.7878,14.2612 5.7878,11.9279 6.5,9.5C 9.39043,6.44739 12.7238,3.94739 16.5,2C 10.0568,0.859745 4.39013,2.35974 -0.5,6.5C -0.5,4.16667 -0.5,1.83333 -0.5,-0.5 Z"/></g>
<g><path style="opacity:1" fill="#e03f37" d="M 74.5,10.5 C 74.5,13.5 74.5,16.5 74.5,19.5C 72.5,19.8333 70.5,20.1667 68.5,20.5C 68.7989,18.396 68.4656,16.396 67.5,14.5C 67.1667,14.6667 66.8333,14.8333 66.5,15C 65.0635,17.6895 64.0635,20.5228 63.5,23.5C 61.822,22.2529 60.4887,20.5862 59.5,18.5C 58.4852,21.2763 57.4852,23.9429 56.5,26.5C 56.2229,23.5525 56.5562,20.7191 57.5,18C 60.838,16.7936 62.6713,17.9603 63,21.5C 63.0154,19.2086 63.1821,17.0419 63.5,15C 62.552,14.5172 61.552,14.3505 60.5,14.5C 60.5,13.1667 60.5,11.8333 60.5,10.5C 62.4918,10.3285 64.1585,10.9951 65.5,12.5C 65.8333,12 66.1667,11.5 66.5,11C 65.2576,9.34879 64.4243,7.51545 64,5.5C 61.9592,6.42308 59.7925,6.75642 57.5,6.5C 57.5,7.83333 57.5,9.16667 57.5,10.5C 56.5,10.5 55.5,10.5 54.5,10.5C 54.6495,9.44802 54.4828,8.44802 54,7.5C 52.8063,9.62342 52.1397,11.9568 52,14.5C 50.9426,17.2719 49.4426,19.6053 47.5,21.5C 49.7897,15.0079 51.4564,8.3412 52.5,1.5C 56.1817,1.3347 59.8484,1.50137 63.5,2C 66.0596,7.14608 68.7263,12.3127 71.5,17.5C 72.6605,15.125 73.6605,12.7917 74.5,10.5 Z"/></g>
<g><path style="opacity:1" fill="#e43c36" d="M 108.5,10.5 C 111.263,10.7438 113.429,12.0771 115,14.5C 115.499,18.1516 115.665,21.8183 115.5,25.5C 108.833,25.5 102.167,25.5 95.5,25.5C 95.33,26.8221 95.6634,27.9887 96.5,29C 102.147,28.7005 107.814,28.7005 113.5,29C 111.461,31.3745 109.128,33.3745 106.5,35C 101.167,35.6667 95.8333,35.6667 90.5,35C 89.2949,33.6244 87.9616,32.4577 86.5,31.5C 86.5,31.1667 86.5,30.8333 86.5,30.5C 84.9024,22.0272 87.9024,15.6939 95.5,11.5C 99.7978,10.8005 104.131,10.4672 108.5,10.5 Z"/></g>
<g><path style="opacity:1" fill="#fde9e4" d="M 100.5,15.5 C 104.349,15.0193 106.349,16.686 106.5,20.5C 103.428,20.8174 100.428,20.4841 97.5,19.5C 98.5244,18.1482 99.5244,16.8149 100.5,15.5 Z"/></g>
<g><path style="opacity:1" fill="#f2faf8" d="M 223.5,6.5 C 222.391,7.28997 221.058,7.78997 219.5,8C 220.759,8.92342 222.092,9.75675 223.5,10.5C 222.833,11.5 222.167,12.5 221.5,13.5C 221.957,14.2975 222.624,14.6309 223.5,14.5C 218.703,19.3977 217.536,25.0644 220,31.5C 221.638,33.7337 223.805,35.067 226.5,35.5C 225.626,38.7893 224.959,42.1226 224.5,45.5C 224.5,46.1667 224.5,46.8333 224.5,47.5C 224.167,47.5 223.833,47.5 223.5,47.5C 224.158,43.3228 222.492,41.8228 218.5,43C 217.944,43.3826 217.611,43.8826 217.5,44.5C 216.662,44.1583 216.328,43.4916 216.5,42.5C 216.672,41.5084 216.338,40.8417 215.5,40.5C 214.817,38.8235 213.483,38.1568 211.5,38.5C 212.207,35.2139 212.54,31.8806 212.5,28.5C 213.008,24.8026 213.674,21.1359 214.5,17.5C 216.167,17.5 217.833,17.5 219.5,17.5C 219.993,15.1944 220.326,12.861 220.5,10.5C 219.022,10.762 217.689,10.4287 216.5,9.5C 218.071,6.90656 220.404,5.90656 223.5,6.5 Z"/></g>
<g><path style="opacity:1" fill="#e9352f" d="M 56.5,26.5 C 55.9084,29.1272 55.5751,31.7938 55.5,34.5C 55.1667,34.5 54.8333,34.5 54.5,34.5C 51.8333,34.5 49.1667,34.5 46.5,34.5C 46.7038,31.4824 47.0371,28.4824 47.5,25.5C 47.5,24.1667 47.5,22.8333 47.5,21.5C 49.4426,19.6053 50.9426,17.2719 52,14.5C 52.1397,11.9568 52.8063,9.62342 54,7.5C 54.4828,8.44802 54.6495,9.44802 54.5,10.5C 55.5,10.5 56.5,10.5 57.5,10.5C 57.5,9.16667 57.5,7.83333 57.5,6.5C 59.7925,6.75642 61.9592,6.42308 64,5.5C 64.4243,7.51545 65.2576,9.34879 66.5,11C 66.1667,11.5 65.8333,12 65.5,12.5C 64.1585,10.9951 62.4918,10.3285 60.5,10.5C 60.5,11.8333 60.5,13.1667 60.5,14.5C 61.552,14.3505 62.552,14.5172 63.5,15C 63.1821,17.0419 63.0154,19.2086 63,21.5C 62.6713,17.9603 60.838,16.7936 57.5,18C 56.5562,20.7191 56.2229,23.5525 56.5,26.5 Z"/></g>
<g><path style="opacity:1" fill="#dc4640" d="M 144.5,17.5 C 142.317,18.8502 140.65,20.6836 139.5,23C 140.984,26.1305 142.317,29.2971 143.5,32.5C 142.5,32.5 141.5,32.5 140.5,32.5C 139.964,29.4453 139.131,26.4453 138,23.5C 137.5,22.3333 136.667,21.5 135.5,21C 136.793,20.51 138.127,20.3433 139.5,20.5C 139.262,17.5918 140.262,15.2585 142.5,13.5C 141.311,12.5713 139.978,12.238 138.5,12.5C 139.871,11.2132 141.705,10.5465 144,10.5C 145.833,10.8333 147.667,11.1667 149.5,11.5C 147.81,13.5193 146.144,15.5193 144.5,17.5 Z"/></g>
<g><path style="opacity:1" fill="#e73730" d="M 85.5,4.5 C 84.99,7.53941 84.3234,10.5394 83.5,13.5C 82.1667,18.8333 80.8333,24.1667 79.5,29.5C 79.5,29.8333 79.5,30.1667 79.5,30.5C 78.6993,32.0418 78.366,33.7085 78.5,35.5C 74.8183,35.6653 71.1516,35.4986 67.5,35C 65.4478,31.4 64.1145,27.5667 63.5,23.5C 64.0635,20.5228 65.0635,17.6895 66.5,15C 66.8333,14.8333 67.1667,14.6667 67.5,14.5C 68.4656,16.396 68.7989,18.396 68.5,20.5C 70.5,20.1667 72.5,19.8333 74.5,19.5C 74.5,16.5 74.5,13.5 74.5,10.5C 74.5,10.1667 74.5,9.83333 74.5,9.5C 75.1174,9.38929 75.6174,9.05596 76,8.5C 76.4955,6.5273 76.6621,4.5273 76.5,2.5C 80.0122,1.9455 83.0122,2.61216 85.5,4.5 Z"/></g>
<g><path style="opacity:1" fill="#e63832" d="M 138.5,12.5 C 139.978,12.238 141.311,12.5713 142.5,13.5C 140.262,15.2585 139.262,17.5918 139.5,20.5C 138.127,20.3433 136.793,20.51 135.5,21C 136.667,21.5 137.5,22.3333 138,23.5C 139.131,26.4453 139.964,29.4453 140.5,32.5C 141.5,32.5 142.5,32.5 143.5,32.5C 140.663,34.4023 137.329,35.069 133.5,34.5C 132.883,32.3198 131.883,30.3198 130.5,28.5C 128.147,30.5227 125.814,32.5227 123.5,34.5C 120.813,34.6641 118.146,34.4974 115.5,34C 116.823,33.1841 117.489,32.0174 117.5,30.5C 120.013,27.8202 122.346,24.9868 124.5,22C 123.724,18.7776 122.391,15.9443 120.5,13.5C 120.5,12.5 120.5,11.5 120.5,10.5C 124.167,10.5 127.833,10.5 131.5,10.5C 132.299,16.3613 134.633,17.028 138.5,12.5 Z"/></g>
<g><path style="opacity:1" fill="#1370b5" d="M 160.5,35.5 C 156.833,35.5 153.167,35.5 149.5,35.5C 150.245,30.109 151.245,24.7756 152.5,19.5C 154.611,13.3942 156.278,7.06086 157.5,0.5C 161.226,0.177442 164.893,0.510775 168.5,1.5C 165.521,12.7512 162.854,24.0846 160.5,35.5 Z"/></g>
<g><path style="opacity:1" fill="#146fb4" d="M 223.5,0.5 C 224.376,0.369118 225.043,0.702451 225.5,1.5C 224.544,3.07536 223.877,4.74203 223.5,6.5C 220.404,5.90656 218.071,6.90656 216.5,9.5C 217.689,10.4287 219.022,10.762 220.5,10.5C 220.326,12.861 219.993,15.1944 219.5,17.5C 217.833,17.5 216.167,17.5 214.5,17.5C 213.674,21.1359 213.008,24.8026 212.5,28.5C 211.076,30.5145 210.41,32.8478 210.5,35.5C 207.167,35.5 203.833,35.5 200.5,35.5C 200.629,33.7839 200.962,32.1172 201.5,30.5C 201.5,29.8333 201.5,29.1667 201.5,28.5C 202.387,24.9042 203.387,21.2376 204.5,17.5C 203.5,17.5 202.5,17.5 201.5,17.5C 201.993,15.1944 202.326,12.861 202.5,10.5C 203.833,10.5 205.167,10.5 206.5,10.5C 208.446,1.3467 214.112,-1.98663 223.5,0.5 Z"/></g>
<g><path style="opacity:1" fill="#e53a31" d="M 20.5,25.5 C 19.5309,27.663 18.6976,29.9963 18,32.5C 17.4387,33.0219 16.772,33.3552 16,33.5C 12.0316,30.6992 8.53155,27.3659 5.5,23.5C 7.91839,15.428 12.5851,9.09468 19.5,4.5C 20.497,11.4684 20.8303,18.4684 20.5,25.5 Z"/></g>
<g><path style="opacity:1" fill="#f7fbf8" d="M 150.5,11.5 C 151.117,11.6107 151.617,11.944 152,12.5C 152.497,14.8098 152.663,17.1432 152.5,19.5C 151.245,24.7756 150.245,30.109 149.5,35.5C 153.167,35.5 156.833,35.5 160.5,35.5C 162.451,34.3586 164.451,34.3586 166.5,35.5C 169.898,35.8204 173.232,35.487 176.5,34.5C 178.233,30.3401 179.4,26.0067 180,21.5C 182.024,17.0257 184.524,16.5257 187.5,20C 186.165,25.0292 184.831,30.0292 183.5,35C 186.817,35.4983 190.15,35.665 193.5,35.5C 195.584,32.163 197.417,28.4963 199,24.5C 200.481,25.4709 201.315,26.8042 201.5,28.5C 201.5,29.1667 201.5,29.8333 201.5,30.5C 200.005,30.4148 199.005,31.0815 198.5,32.5C 199.246,33.7362 199.579,35.0695 199.5,36.5C 202.898,36.1796 206.232,36.513 209.5,37.5C 208.5,38.3333 207.5,39.1667 206.5,40C 208.229,41.7889 208.896,43.9556 208.5,46.5C 208.5,46.8333 208.5,47.1667 208.5,47.5C 208.167,47.5 207.833,47.5 207.5,47.5C 208.167,43.5 206.5,41.8333 202.5,42.5C 201.167,42.5 199.833,42.5 198.5,42.5C 197.5,42.5 196.5,42.5 195.5,42.5C 194.5,42.5 193.5,42.5 192.5,42.5C 191.886,40.2775 190.552,38.6108 188.5,37.5C 184.22,37.9209 180.22,38.9209 176.5,40.5C 176.737,41.791 176.404,42.791 175.5,43.5C 175.361,41.663 174.694,41.3296 173.5,42.5C 174.738,45.1655 174.738,47.8322 173.5,50.5C 172.702,48.9223 172.202,47.2556 172,45.5C 171.617,46.056 171.117,46.3893 170.5,46.5C 170.5,46.1667 170.5,45.8333 170.5,45.5C 170.785,43.712 170.452,42.0453 169.5,40.5C 168.893,40.6236 168.56,40.9569 168.5,41.5C 164.116,41.8256 159.783,41.4922 155.5,40.5C 153.956,38.5539 151.956,38.0539 149.5,39C 150.624,39.2492 151.624,39.7492 152.5,40.5C 151.051,41.1719 149.718,41.8386 148.5,42.5C 146.379,42.3253 144.379,42.6586 142.5,43.5C 141.662,43.1583 141.328,42.4916 141.5,41.5C 141.5,40.1667 140.833,39.5 139.5,39.5C 138.061,40.5092 136.728,40.1759 135.5,38.5C 136.376,37.7492 137.376,37.2492 138.5,37C 138.272,36.6012 137.938,36.4346 137.5,36.5C 137.5,36.1667 137.5,35.8333 137.5,35.5C 139.833,35.5 142.167,35.5 144.5,35.5C 144.737,34.209 144.404,33.209 143.5,32.5C 142.317,29.2971 140.984,26.1305 139.5,23C 140.65,20.6836 142.317,18.8502 144.5,17.5C 144.369,18.3764 144.702,19.0431 145.5,19.5C 147.07,19.3062 148.57,19.3062 150,19.5C 150.497,16.854 150.664,14.1873 150.5,11.5 Z"/></g>
<g><path style="opacity:1" fill="#156fb6" d="M 193.5,35.5 C 190.15,35.665 186.817,35.4983 183.5,35C 184.831,30.0292 186.165,25.0292 187.5,20C 184.524,16.5257 182.024,17.0257 180,21.5C 179.4,26.0067 178.233,30.3401 176.5,34.5C 173.232,35.487 169.898,35.8204 166.5,35.5C 168.966,27.3002 170.966,18.9668 172.5,10.5C 175.5,10.5 178.5,10.5 181.5,10.5C 181.351,11.552 181.517,12.552 182,13.5C 187.527,8.31003 192.86,8.31003 198,13.5C 197.345,20.9394 195.845,28.2727 193.5,35.5 Z"/></g>
<g><path style="opacity:1" fill="#156fb6" d="M 234.5,35.5 C 231.833,35.5 229.167,35.5 226.5,35.5C 223.805,35.067 221.638,33.7337 220,31.5C 217.536,25.0644 218.703,19.3977 223.5,14.5C 231.219,8.50613 239.052,8.1728 247,13.5C 250.363,25.1075 246.196,32.4409 234.5,35.5 Z"/></g>
<g><path style="opacity:1" fill="#eff8f8" d="M 233.5,16.5 C 236.93,15.7553 238.597,17.0886 238.5,20.5C 238.744,25.3023 236.578,28.3023 232,29.5C 229.709,28.8759 228.543,27.3759 228.5,25C 229.05,21.3853 230.716,18.552 233.5,16.5 Z"/></g>
<g><path style="opacity:1" fill="#f5faf1" d="M 18.5,-0.5 C 25.8333,-0.5 33.1667,-0.5 40.5,-0.5C 39.3998,0.558465 38.0664,1.3918 36.5,2C 40.544,2.65334 41.2106,4.15334 38.5,6.5C 39.6297,8.79541 40.963,10.9621 42.5,13C 42.3158,14.3756 41.6491,15.2089 40.5,15.5C 40.9305,18.8621 39.9305,21.6954 37.5,24C 39.1556,25.7972 40.1556,27.9639 40.5,30.5C 41,30.8333 41.5,31.1667 42,31.5C 43.0769,30.5705 44.2436,29.9038 45.5,29.5C 44.8505,31.4352 44.5172,33.4352 44.5,35.5C 48.0419,35.8128 51.3752,35.4794 54.5,34.5C 54.8333,34.5 55.1667,34.5 55.5,34.5C 55.5,35.1667 55.5,35.8333 55.5,36.5C 51.8333,36.5 48.1667,36.5 44.5,36.5C 44.5,37.5 44.5,38.5 44.5,39.5C 45.552,39.3505 46.552,39.5172 47.5,40C 45.4982,41.0192 43.4982,41.8525 41.5,42.5C 38.7688,38.2881 34.9354,35.2881 30,33.5C 29.5,33.8333 29,34.1667 28.5,34.5C 29.8233,39.0885 29.3233,39.4218 27,35.5C 25.6124,36.5536 24.1124,36.7203 22.5,36C 21.9011,34.3775 21.2344,32.8775 20.5,31.5C 20.2417,29.8098 20.2417,27.8098 20.5,25.5C 21.2216,25.0825 21.7216,24.4158 22,23.5C 22.6667,17.1667 22.6667,10.8333 22,4.5C 20.9887,3.66337 19.8221,3.33003 18.5,3.5C 18.5,2.16667 18.5,0.833333 18.5,-0.5 Z"/></g>
<g><path style="opacity:1" fill="#1ba954" d="M 40.5,15.5 C 37.068,23.7751 31.568,30.4418 24,35.5C 26.0519,25.0882 31.7186,17.0882 41,11.5C 41.195,12.8193 41.0283,14.1526 40.5,15.5 Z"/></g>
<g><path style="opacity:1" fill="#f6f985" d="M 23.5,5.5 C 24.4872,10.3054 24.8205,15.3054 24.5,20.5C 25.5,20.5 26.5,20.5 27.5,20.5C 26.8549,21.8118 25.8549,22.8118 24.5,23.5C 23.5041,17.5368 23.1707,11.5368 23.5,5.5 Z"/></g>
<g><path style="opacity:1" fill="#faf124" d="M 38.5,6.5 C 34.0934,10.5746 30.4267,15.2413 27.5,20.5C 26.5,20.5 25.5,20.5 24.5,20.5C 24.8205,15.3054 24.4872,10.3054 23.5,5.5C 23.5,4.16667 23.5,2.83333 23.5,1.5C 28.6786,1.198 33.6786,1.86467 38.5,3.5C 38.5,4.5 38.5,5.5 38.5,6.5 Z"/></g>
<g><path style="opacity:1" fill="#f9fcfa" d="M 6.5,9.5 C 5.7878,11.9279 4.7878,14.2612 3.5,16.5C 5.05393,20.3901 4.72059,24.0568 2.5,27.5C 4.16934,28.6709 5.66934,30.0042 7,31.5C 9.36634,30.0615 9.86634,30.5615 8.5,33C 9.74866,34.8241 10.9153,34.6574 12,32.5C 12.8159,33.8228 13.9826,34.4894 15.5,34.5C 16.4457,36.1321 17.4457,37.7988 18.5,39.5C 17.0531,40.9348 15.3864,41.9348 13.5,42.5C 12.2209,41.032 10.5542,40.3653 8.5,40.5C 7.44802,40.3505 6.44802,40.5172 5.5,41C 4.281,43.2782 2.94766,45.4449 1.5,47.5C 0.833333,47.5 0.166667,47.5 -0.5,47.5C -0.5,35.8333 -0.5,24.1667 -0.5,12.5C 0.151487,13.0906 0.818153,13.7573 1.5,14.5C 3.40138,12.9937 5.06805,11.3271 6.5,9.5 Z"/></g>
<g><path style="opacity:1" fill="#faf9f8" d="M 63.5,23.5 C 64.1145,27.5667 65.4478,31.4 67.5,35C 71.1516,35.4986 74.8183,35.6653 78.5,35.5C 78.366,33.7085 78.6993,32.0418 79.5,30.5C 80.265,31.6602 81.265,32.6602 82.5,33.5C 83.4287,34.6888 83.762,36.0222 83.5,37.5C 82.5,37.5 81.5,37.5 80.5,37.5C 80.5,38.5 80.5,39.5 80.5,40.5C 76.5754,39.3331 72.9088,39.3331 69.5,40.5C 69.1583,39.6618 68.4916,39.3284 67.5,39.5C 66.7784,39.9175 66.2784,40.5842 66,41.5C 65.6174,40.944 65.1174,40.6107 64.5,40.5C 63.5084,40.3284 62.8417,40.6618 62.5,41.5C 60.5082,41.6715 58.8415,41.0049 57.5,39.5C 56.5,40.1667 55.5,40.8333 54.5,41.5C 53.4096,40.273 52.0762,39.4396 50.5,39C 52.6526,38.9005 54.3192,38.0672 55.5,36.5C 55.5,35.8333 55.5,35.1667 55.5,34.5C 55.5751,31.7938 55.9084,29.1272 56.5,26.5C 57.4852,23.9429 58.4852,21.2763 59.5,18.5C 60.4887,20.5862 61.822,22.2529 63.5,23.5 Z"/></g>
<g><path style="opacity:1" fill="#c44c47" d="M 47.5,25.5 C 47.0371,28.4824 46.7038,31.4824 46.5,34.5C 49.1667,34.5 51.8333,34.5 54.5,34.5C 51.3752,35.4794 48.0419,35.8128 44.5,35.5C 44.5172,33.4352 44.8505,31.4352 45.5,29.5C 45.9887,28.0048 46.6554,26.6715 47.5,25.5 Z"/></g>
<g><path style="opacity:1" fill="#effbfb" d="M 86.5,30.5 C 86.5,30.8333 86.5,31.1667 86.5,31.5C 86.4142,32.4959 86.7476,33.3292 87.5,34C 86.8333,34.3333 86.1667,34.6667 85.5,35C 89.4681,35.9418 93.4681,36.7751 97.5,37.5C 98.1925,38.5178 98.8592,39.5178 99.5,40.5C 92.925,40.3939 90.5917,43.3939 92.5,49.5C 94.4086,50.3482 96.4086,50.6816 98.5,50.5C 98.2249,52.7583 97.2249,53.0916 95.5,51.5C 91.8119,54.2551 87.8119,54.9218 83.5,53.5C 79.6536,55.2089 76.6536,54.2089 74.5,50.5C 72.9891,51.5025 71.3224,52.1692 69.5,52.5C 69.719,53.675 69.3857,54.675 68.5,55.5C 67.8483,53.192 66.515,51.5253 64.5,50.5C 63.9734,47.0255 63.9734,43.6921 64.5,40.5C 65.1174,40.6107 65.6174,40.944 66,41.5C 66.2784,40.5842 66.7784,39.9175 67.5,39.5C 67.7107,41.4241 68.3774,41.7574 69.5,40.5C 72.9088,39.3331 76.5754,39.3331 80.5,40.5C 80.5,39.5 80.5,38.5 80.5,37.5C 81.5,37.5 82.5,37.5 83.5,37.5C 83.762,36.0222 83.4287,34.6888 82.5,33.5C 81.265,32.6602 80.265,31.6602 79.5,30.5C 79.5,30.1667 79.5,29.8333 79.5,29.5C 80.7498,29.4226 81.5831,28.756 82,27.5C 82.1922,25.4233 82.6922,23.4233 83.5,21.5C 84.3184,24.1071 84.8184,26.7737 85,29.5C 85.3826,30.056 85.8826,30.3893 86.5,30.5 Z"/></g>
<g><path style="opacity:1" fill="#bb4c4b" d="M 143.5,32.5 C 144.404,33.209 144.737,34.209 144.5,35.5C 142.167,35.5 139.833,35.5 137.5,35.5C 135.901,35.7678 134.568,35.4345 133.5,34.5C 137.329,35.069 140.663,34.4023 143.5,32.5 Z"/></g>
<g><path style="opacity:1" fill="#edf9fb" d="M 20.5,31.5 C 21.2344,32.8775 21.9011,34.3775 22.5,36C 24.1124,36.7203 25.6124,36.5536 27,35.5C 29.3233,39.4218 29.8233,39.0885 28.5,34.5C 29,34.1667 29.5,33.8333 30,33.5C 34.9354,35.2881 38.7688,38.2881 41.5,42.5C 43.4982,41.8525 45.4982,41.0192 47.5,40C 46.552,39.5172 45.552,39.3505 44.5,39.5C 44.5,38.5 44.5,37.5 44.5,36.5C 48.1667,36.5 51.8333,36.5 55.5,36.5C 54.3192,38.0672 52.6526,38.9005 50.5,39C 52.0762,39.4396 53.4096,40.273 54.5,41.5C 55.5,40.8333 56.5,40.1667 57.5,39.5C 58.8415,41.0049 60.5082,41.6715 62.5,41.5C 60.8232,44.9271 61.1565,47.9271 63.5,50.5C 62.6182,52.0843 61.7848,53.751 61,55.5C 58.4565,52.8992 55.2898,51.8992 51.5,52.5C 51.2155,50.5853 51.5489,48.9187 52.5,47.5C 51.6522,46.375 50.6522,46.375 49.5,47.5C 49.7118,45.6159 50.7118,44.2826 52.5,43.5C 51.3112,42.5713 49.9778,42.238 48.5,42.5C 47.7369,45.1411 47.5702,47.8078 48,50.5C 48.2784,49.5842 48.7784,48.9175 49.5,48.5C 49.7616,51.9209 48.4283,52.9209 45.5,51.5C 44.5,52.1667 43.5,52.8333 42.5,53.5C 40.0958,52.7285 37.7625,51.7285 35.5,50.5C 31.8711,53.157 28.2044,53.157 24.5,50.5C 25.8689,47.8688 25.2022,47.2022 22.5,48.5C 21.269,47.3493 21.269,46.1827 22.5,45C 23.9506,45.2626 25.2839,45.0959 26.5,44.5C 22.9369,41.4795 20.6036,42.3128 19.5,47C 19.4235,49.7561 20.7569,50.9228 23.5,50.5C 22.8213,52.8139 21.488,53.1472 19.5,51.5C 18.2054,52.0983 16.8721,52.5983 15.5,53C 16.6956,53.6543 16.6956,54.1543 15.5,54.5C 13.2589,53.9682 11.7589,52.6349 11,50.5C 9.60431,52.5268 7.93764,52.8602 6,51.5C 5.66667,52.5 5.33333,53.5 5,54.5C 3.66184,51.9177 1.82851,51.2511 -0.5,52.5C -0.5,50.8333 -0.5,49.1667 -0.5,47.5C 0.166667,47.5 0.833333,47.5 1.5,47.5C 0.437636,48.5754 0.437636,49.5754 1.5,50.5C 3.8679,47.9858 6.20123,47.9858 8.5,50.5C 9.5527,47.1849 9.5527,43.8515 8.5,40.5C 10.5542,40.3653 12.2209,41.032 13.5,42.5C 15.3864,41.9348 17.0531,40.9348 18.5,39.5C 17.4457,37.7988 16.4457,36.1321 15.5,34.5C 17.9893,34.7593 19.656,33.7593 20.5,31.5 Z"/></g>
<g><path style="opacity:1" fill="#faf5f3" d="M 120.5,13.5 C 122.391,15.9443 123.724,18.7776 124.5,22C 122.346,24.9868 120.013,27.8202 117.5,30.5C 115.855,31.4787 114.521,32.812 113.5,34.5C 116.98,35.8056 120.313,35.8056 123.5,34.5C 125.814,32.5227 128.147,30.5227 130.5,28.5C 131.883,30.3198 132.883,32.3198 133.5,34.5C 134.568,35.4345 135.901,35.7678 137.5,35.5C 137.5,35.8333 137.5,36.1667 137.5,36.5C 135.5,36.5 133.5,36.5 131.5,36.5C 131.778,38.3464 131.111,39.6798 129.5,40.5C 128.539,39.0375 127.039,37.3708 125,35.5C 124.333,36.1667 123.667,36.8333 123,37.5C 119.591,36.3781 116.091,36.2114 112.5,37C 114.202,38.7184 116.035,38.885 118,37.5C 118.925,38.0465 119.758,38.7132 120.5,39.5C 119.007,40.1411 118.007,41.1411 117.5,42.5C 114.675,42.0807 112.509,43.0807 111,45.5C 110.626,44.5838 110.126,43.7504 109.5,43C 107.288,42.2109 105.288,42.3775 103.5,43.5C 102.833,43.5 102.167,43.5 101.5,43.5C 100.833,42.5 100.167,41.5 99.5,40.5C 98.8592,39.5178 98.1925,38.5178 97.5,37.5C 93.4681,36.7751 89.4681,35.9418 85.5,35C 86.1667,34.6667 86.8333,34.3333 87.5,34C 86.7476,33.3292 86.4142,32.4959 86.5,31.5C 87.9616,32.4577 89.2949,33.6244 90.5,35C 95.8333,35.6667 101.167,35.6667 106.5,35C 109.128,33.3745 111.461,31.3745 113.5,29C 107.814,28.7005 102.147,28.7005 96.5,29C 95.6634,27.9887 95.33,26.8221 95.5,25.5C 102.167,25.5 108.833,25.5 115.5,25.5C 115.665,21.8183 115.499,18.1516 115,14.5C 113.429,12.0771 111.263,10.7438 108.5,10.5C 106.052,9.52693 103.385,9.1936 100.5,9.5C 103.899,8.18016 107.399,8.18016 111,9.5C 111.249,8.37598 111.749,7.37598 112.5,6.5C 115.167,7.5 115.167,8.5 112.5,9.5C 114.387,11.0404 116.22,12.7071 118,14.5C 118.671,13.7476 119.504,13.4142 120.5,13.5 Z"/></g>
<g><path style="opacity:1" fill="#c7494c" d="M 117.5,30.5 C 117.489,32.0174 116.823,33.1841 115.5,34C 118.146,34.4974 120.813,34.6641 123.5,34.5C 120.313,35.8056 116.98,35.8056 113.5,34.5C 114.521,32.812 115.855,31.4787 117.5,30.5 Z"/></g>
<g><path style="opacity:1" fill="#1d74a0" d="M 67.5,39.5 C 68.4916,39.3284 69.1583,39.6618 69.5,40.5C 68.3774,41.7574 67.7107,41.4241 67.5,39.5 Z"/></g>
<g><path style="opacity:1" fill="#2e76aa" d="M 99.5,40.5 C 100.167,41.5 100.833,42.5 101.5,43.5C 101.85,46.4534 100.85,48.7867 98.5,50.5C 96.4086,50.6816 94.4086,50.3482 92.5,49.5C 90.5917,43.3939 92.925,40.3939 99.5,40.5 Z"/></g>
<g><path style="opacity:1" fill="#3276a7" d="M 8.5,40.5 C 9.5527,43.8515 9.5527,47.1849 8.5,50.5C 6.20123,47.9858 3.8679,47.9858 1.5,50.5C 0.437636,49.5754 0.437636,48.5754 1.5,47.5C 2.94766,45.4449 4.281,43.2782 5.5,41C 6.44802,40.5172 7.44802,40.3505 8.5,40.5 Z"/></g>
<g><path style="opacity:1" fill="#3372a0" d="M 24.5,50.5 C 24.1667,50.5 23.8333,50.5 23.5,50.5C 20.7569,50.9228 19.4235,49.7561 19.5,47C 20.6036,42.3128 22.9369,41.4795 26.5,44.5C 25.2839,45.0959 23.9506,45.2626 22.5,45C 21.269,46.1827 21.269,47.3493 22.5,48.5C 25.2022,47.2022 25.8689,47.8688 24.5,50.5 Z"/></g>
<g><path style="opacity:1" fill="#3174a9" d="M 64.5,40.5 C 63.9734,43.6921 63.9734,47.0255 64.5,50.5C 64.1667,50.5 63.8333,50.5 63.5,50.5C 61.1565,47.9271 60.8232,44.9271 62.5,41.5C 62.8417,40.6618 63.5084,40.3284 64.5,40.5 Z"/></g>
<g><path style="opacity:1" fill="#3777a6" d="M 74.5,50.5 C 74.5754,43.0043 73.242,43.0043 70.5,50.5C 70.1667,50.1667 69.8333,49.8333 69.5,49.5C 70.3742,47.2534 70.7076,44.9201 70.5,42.5C 78.1725,42.2046 79.5058,44.8713 74.5,50.5 Z"/></g>
<g><path style="opacity:1" fill="#bbf4ff" d="M 5.5,43.5 C 6.7759,44.3864 6.7759,45.3864 5.5,46.5C 4.91297,45.7666 4.91297,44.7666 5.5,43.5 Z"/></g>
<g><path style="opacity:1" fill="#e2f3f8" d="M 95.5,42.5 C 100.655,43.838 100.821,45.838 96,48.5C 92.897,46.888 92.7304,44.888 95.5,42.5 Z"/></g>
<g><path style="opacity:1" fill="#286b9a" d="M 176.5,40.5 C 179.247,40.1866 181.914,40.52 184.5,41.5C 182.5,42.1667 180.5,42.8333 178.5,43.5C 179.833,44.1667 181.167,44.8333 182.5,45.5C 175.833,46.8333 175.833,48.1667 182.5,49.5C 180.257,50.4742 177.924,50.8076 175.5,50.5C 175.5,48.1667 175.5,45.8333 175.5,43.5C 176.404,42.791 176.737,41.791 176.5,40.5 Z"/></g>
<g><path style="opacity:1" fill="#3b77a2" d="M 29.5,42.5 C 33.5,41.8333 35.1667,43.5 34.5,47.5C 28.7924,47.4924 28.4591,47.9924 33.5,49C 30.3589,51.3861 28.3589,50.7195 27.5,47C 27.5186,45.167 28.1852,43.667 29.5,42.5 Z"/></g>
<g><path style="opacity:1" fill="#306fa4" d="M 49.5,47.5 C 49.5,47.8333 49.5,48.1667 49.5,48.5C 48.7784,48.9175 48.2784,49.5842 48,50.5C 47.5702,47.8078 47.7369,45.1411 48.5,42.5C 49.9778,42.238 51.3112,42.5713 52.5,43.5C 50.7118,44.2826 49.7118,45.6159 49.5,47.5 Z"/></g>
<g><path style="opacity:1" fill="#2f7199" d="M 66.5,42.5 C 67.5862,42.62 68.2528,43.2867 68.5,44.5C 68.1401,46.6079 67.4734,48.6079 66.5,50.5C 66.2176,48.0134 66.2176,45.3467 66.5,42.5 Z"/></g>
<g><path style="opacity:1" fill="#3e7db0" d="M 41.5,42.5 C 45.5,41.8333 47.1667,43.5 46.5,47.5C 40.7924,47.4924 40.4591,47.9924 45.5,49C 42.3589,51.3861 40.3589,50.7195 39.5,47C 39.5186,45.167 40.1852,43.667 41.5,42.5 Z"/></g>
<g><path style="opacity:1" fill="#3c77a7" d="M 117.5,42.5 C 118.301,44.0418 118.634,45.7085 118.5,47.5C 112.792,47.4924 112.459,47.9924 117.5,49C 114.629,51.1999 112.296,50.6999 110.5,47.5C 108.744,49.3657 106.744,50.6991 104.5,51.5C 103.86,53.332 102.86,53.6653 101.5,52.5C 102.169,49.4701 102.835,46.4701 103.5,43.5C 105.288,42.3775 107.288,42.2109 109.5,43C 110.126,43.7504 110.626,44.5838 111,45.5C 112.509,43.0807 114.675,42.0807 117.5,42.5 Z"/></g>
<g><path style="opacity:1" fill="#d0e9fa" d="M 105.5,44.5 C 107.176,45.1834 107.843,46.5168 107.5,48.5C 106.5,48.5 105.5,48.5 104.5,48.5C 104.433,47.0413 104.766,45.7079 105.5,44.5 Z"/></g>
<g><path style="opacity:1" fill="#3474a6" d="M 13.5,42.5 C 15.6648,42.1159 17.3315,42.7826 18.5,44.5C 17.0333,44.723 15.5333,45.0563 14,45.5C 13.2506,46.635 13.4173,47.635 14.5,48.5C 16.9358,47.1091 17.6025,47.6091 16.5,50C 11.9167,50.9337 10.4167,49.1004 12,44.5C 12.7172,43.9558 13.2172,43.2891 13.5,42.5 Z"/></g>
<g><path style="opacity:1" fill="#357aae" d="M 35.5,50.5 C 35.1506,46.9356 35.8173,43.6022 37.5,40.5C 38.37,42.758 38.37,45.0913 37.5,47.5C 37.3601,49.0296 36.6935,50.0296 35.5,50.5 Z"/></g>
<g><path style="opacity:1" fill="#35729e" d="M 170.5,45.5 C 169.661,46.6412 168.994,47.9745 168.5,49.5C 167.998,50.521 167.332,50.6877 166.5,50C 167.482,47.2617 168.148,44.4284 168.5,41.5C 168.56,40.9569 168.893,40.6236 169.5,40.5C 170.452,42.0453 170.785,43.712 170.5,45.5 Z"/></g>
<g><path style="opacity:1" fill="#397baa" d="M 52.5,47.5 C 53.8304,46.1679 55.4971,45.3345 57.5,45C 52.8782,43.6723 53.5449,42.839 59.5,42.5C 59.5,45.1667 59.5,47.8333 59.5,50.5C 57.1667,50.5 54.8333,50.5 52.5,50.5C 52.5,49.5 52.5,48.5 52.5,47.5 Z"/></g>
<g><path style="opacity:1" fill="#35719e" d="M 83.5,53.5 C 76.4928,53.0462 76.1595,52.2129 82.5,51C 77.9588,49.5068 77.2921,46.8402 80.5,43C 82.4727,42.5045 84.4727,42.3379 86.5,42.5C 86.1279,46.372 85.1279,50.0387 83.5,53.5 Z"/></g>
<g><path style="opacity:1" fill="#caeffb" d="M 81.5,44.5 C 84.0414,45.6228 84.0414,46.9561 81.5,48.5C 80.3744,47.1916 80.3744,45.8583 81.5,44.5 Z"/></g>
<g><path style="opacity:1" fill="#30719f" d="M 243.5,42.5 C 247.5,41.8333 249.167,43.5 248.5,47.5C 246.801,47.3398 245.134,47.5065 243.5,48C 245.058,48.21 246.391,48.71 247.5,49.5C 242.396,51.5653 240.563,49.8987 242,44.5C 242.717,43.9558 243.217,43.2891 243.5,42.5 Z"/></g>
<g><path style="opacity:1" fill="#fbfcfa" d="M 101.5,43.5 C 102.167,43.5 102.833,43.5 103.5,43.5C 102.835,46.4701 102.169,49.4701 101.5,52.5C 102.86,53.6653 103.86,53.332 104.5,51.5C 106.262,51.6427 107.929,51.3094 109.5,50.5C 110.466,52.396 110.799,54.396 110.5,56.5C 73.5,56.5 36.5,56.5 -0.5,56.5C -0.5,55.1667 -0.5,53.8333 -0.5,52.5C 1.82851,51.2511 3.66184,51.9177 5,54.5C 5.33333,53.5 5.66667,52.5 6,51.5C 7.93764,52.8602 9.60431,52.5268 11,50.5C 11.7589,52.6349 13.2589,53.9682 15.5,54.5C 16.6956,54.1543 16.6956,53.6543 15.5,53C 16.8721,52.5983 18.2054,52.0983 19.5,51.5C 21.488,53.1472 22.8213,52.8139 23.5,50.5C 23.8333,50.5 24.1667,50.5 24.5,50.5C 28.2044,53.157 31.8711,53.157 35.5,50.5C 37.7625,51.7285 40.0958,52.7285 42.5,53.5C 43.5,52.8333 44.5,52.1667 45.5,51.5C 48.4283,52.9209 49.7616,51.9209 49.5,48.5C 49.5,48.1667 49.5,47.8333 49.5,47.5C 50.6522,46.375 51.6522,46.375 52.5,47.5C 51.5489,48.9187 51.2155,50.5853 51.5,52.5C 55.2898,51.8992 58.4565,52.8992 61,55.5C 61.7848,53.751 62.6182,52.0843 63.5,50.5C 63.8333,50.5 64.1667,50.5 64.5,50.5C 66.515,51.5253 67.8483,53.192 68.5,55.5C 69.3857,54.675 69.719,53.675 69.5,52.5C 71.3224,52.1692 72.9891,51.5025 74.5,50.5C 76.6536,54.2089 79.6536,55.2089 83.5,53.5C 87.8119,54.9218 91.8119,54.2551 95.5,51.5C 97.2249,53.0916 98.2249,52.7583 98.5,50.5C 100.85,48.7867 101.85,46.4534 101.5,43.5 Z"/></g>
<g><path style="opacity:1" fill="#fbfcfa" d="M 175.5,43.5 C 175.5,45.8333 175.5,48.1667 175.5,50.5C 175.441,52.7645 176.274,53.0978 178,51.5C 180.135,52.1271 182.302,52.6271 184.5,53C 181.782,54.7677 178.949,54.9344 176,53.5C 174.333,56.1667 172.667,56.1667 171,53.5C 170.517,54.448 170.351,55.448 170.5,56.5C 150.833,56.5 131.167,56.5 111.5,56.5C 111.5,55.5 111.5,54.5 111.5,53.5C 114.889,52.3901 118.222,51.3901 121.5,50.5C 122.29,49.3915 122.79,48.0581 123,46.5C 123.232,47.7375 123.732,48.7375 124.5,49.5C 124.5,49.8333 124.5,50.1667 124.5,50.5C 125.082,51.9311 125.915,53.2644 127,54.5C 128.793,52.1944 130.96,51.8611 133.5,53.5C 134.919,52.9953 135.585,51.9953 135.5,50.5C 137.339,51.7525 139.172,51.7525 141,50.5C 141.667,51.1667 142.333,51.8333 143,52.5C 146.79,51.2564 150.624,51.923 154.5,54.5C 155.429,53.3112 155.762,51.9778 155.5,50.5C 155.833,50.5 156.167,50.5 156.5,50.5C 157.167,50.1667 157.833,49.8333 158.5,49.5C 159.167,49.5 159.5,49.8333 159.5,50.5C 162.687,51.8056 166.02,51.8056 169.5,50.5C 170.246,49.2638 170.579,47.9305 170.5,46.5C 171.117,46.3893 171.617,46.056 172,45.5C 172.202,47.2556 172.702,48.9223 173.5,50.5C 174.738,47.8322 174.738,45.1655 173.5,42.5C 174.694,41.3296 175.361,41.663 175.5,43.5 Z"/></g>
<g><path style="opacity:1" fill="#effafb" d="M 212.5,28.5 C 212.54,31.8806 212.207,35.2139 211.5,38.5C 213.483,38.1568 214.817,38.8235 215.5,40.5C 213.369,43.5554 212.702,46.8887 213.5,50.5C 214.753,47.8164 215.753,45.1497 216.5,42.5C 216.328,43.4916 216.662,44.1583 217.5,44.5C 215.584,50.0857 217.251,51.5857 222.5,49C 217.459,47.9924 217.792,47.4924 223.5,47.5C 223.833,47.5 224.167,47.5 224.5,47.5C 224.281,48.675 224.614,49.675 225.5,50.5C 226.205,48.3279 227.205,46.3279 228.5,44.5C 229.547,51.5951 230.88,51.9285 232.5,45.5C 232.392,44.5581 232.059,43.7247 231.5,43C 229.527,42.5045 227.527,42.3379 225.5,42.5C 225.737,43.791 225.404,44.791 224.5,45.5C 224.959,42.1226 225.626,38.7893 226.5,35.5C 229.167,35.5 231.833,35.5 234.5,35.5C 232.548,36.7847 230.882,38.4514 229.5,40.5C 231.304,41.7681 233.304,42.4348 235.5,42.5C 233.667,44.4957 233.167,46.829 234,49.5C 236.2,50.9901 238.034,50.6568 239.5,48.5C 238.609,47.4104 237.609,47.4104 236.5,48.5C 235.156,45.1777 236.156,44.1777 239.5,45.5C 240.562,44.5754 240.562,43.5754 239.5,42.5C 240.833,42.5 242.167,42.5 243.5,42.5C 243.217,43.2891 242.717,43.9558 242,44.5C 240.563,49.8987 242.396,51.5653 247.5,49.5C 246.688,50.9931 245.355,51.6598 243.5,51.5C 241.127,50.064 239.127,50.3973 237.5,52.5C 235.139,51.979 232.806,51.6457 230.5,51.5C 229.167,52.5 229.167,53.5 230.5,54.5C 233.314,55.0216 235.98,55.0216 238.5,54.5C 239.298,54.9569 239.631,55.6236 239.5,56.5C 216.5,56.5 193.5,56.5 170.5,56.5C 170.351,55.448 170.517,54.448 171,53.5C 172.667,56.1667 174.333,56.1667 176,53.5C 178.949,54.9344 181.782,54.7677 184.5,53C 182.302,52.6271 180.135,52.1271 178,51.5C 176.274,53.0978 175.441,52.7645 175.5,50.5C 177.924,50.8076 180.257,50.4742 182.5,49.5C 175.833,48.1667 175.833,46.8333 182.5,45.5C 181.167,44.8333 179.833,44.1667 178.5,43.5C 180.5,42.8333 182.5,42.1667 184.5,41.5C 181.914,40.52 179.247,40.1866 176.5,40.5C 180.22,38.9209 184.22,37.9209 188.5,37.5C 190.552,38.6108 191.886,40.2775 192.5,42.5C 193.5,42.5 194.5,42.5 195.5,42.5C 192.995,44.1859 192.162,46.5193 193,49.5C 195.573,50.9825 197.74,50.4825 199.5,48C 197.893,48.0187 196.226,48.1854 194.5,48.5C 194.33,47.1779 194.663,46.0113 195.5,45C 196.951,45.2626 198.284,45.0959 199.5,44.5C 199.137,43.8165 198.804,43.1499 198.5,42.5C 199.833,42.5 201.167,42.5 202.5,42.5C 200.891,44.6015 200.391,46.9348 201,49.5C 202.965,50.885 204.798,50.7184 206.5,49C 201.459,47.9924 201.792,47.4924 207.5,47.5C 207.833,47.5 208.167,47.5 208.5,47.5C 208.281,48.675 208.614,49.675 209.5,50.5C 210.87,47.4379 211.87,44.2713 212.5,41C 212.167,40.8333 211.833,40.6667 211.5,40.5C 210.482,42.5939 209.482,44.5939 208.5,46.5C 208.896,43.9556 208.229,41.7889 206.5,40C 207.5,39.1667 208.5,38.3333 209.5,37.5C 206.232,36.513 202.898,36.1796 199.5,36.5C 199.579,35.0695 199.246,33.7362 198.5,32.5C 199.005,31.0815 200.005,30.4148 201.5,30.5C 200.962,32.1172 200.629,33.7839 200.5,35.5C 203.833,35.5 207.167,35.5 210.5,35.5C 210.41,32.8478 211.076,30.5145 212.5,28.5 Z"/></g>
<g><path style="opacity:1" fill="#3375a9" d="M 208.5,47.5 C 208.5,47.1667 208.5,46.8333 208.5,46.5C 209.482,44.5939 210.482,42.5939 211.5,40.5C 211.833,40.6667 212.167,40.8333 212.5,41C 211.87,44.2713 210.87,47.4379 209.5,50.5C 208.614,49.675 208.281,48.675 208.5,47.5 Z"/></g>
<g><path style="opacity:1" fill="#2d6ea1" d="M 195.5,42.5 C 196.5,42.5 197.5,42.5 198.5,42.5C 198.804,43.1499 199.137,43.8165 199.5,44.5C 198.284,45.0959 196.951,45.2626 195.5,45C 194.663,46.0113 194.33,47.1779 194.5,48.5C 196.226,48.1854 197.893,48.0187 199.5,48C 197.74,50.4825 195.573,50.9825 193,49.5C 192.162,46.5193 192.995,44.1859 195.5,42.5 Z"/></g>
<g><path style="opacity:1" fill="#2d70a1" d="M 235.5,42.5 C 236.833,42.5 238.167,42.5 239.5,42.5C 240.562,43.5754 240.562,44.5754 239.5,45.5C 236.156,44.1777 235.156,45.1777 236.5,48.5C 237.609,47.4104 238.609,47.4104 239.5,48.5C 238.034,50.6568 236.2,50.9901 234,49.5C 233.167,46.829 233.667,44.4957 235.5,42.5 Z"/></g>
<g><path style="opacity:1" fill="#2c74af" d="M 202.5,42.5 C 206.5,41.8333 208.167,43.5 207.5,47.5C 201.792,47.4924 201.459,47.9924 206.5,49C 204.798,50.7184 202.965,50.885 201,49.5C 200.391,46.9348 200.891,44.6015 202.5,42.5 Z"/></g>
<g><path style="opacity:1" fill="#3371a0" d="M 223.5,47.5 C 217.792,47.4924 217.459,47.9924 222.5,49C 217.251,51.5857 215.584,50.0857 217.5,44.5C 217.611,43.8826 217.944,43.3826 218.5,43C 222.492,41.8228 224.158,43.3228 223.5,47.5 Z"/></g>
<g><path style="opacity:1" fill="#3573a3" d="M 215.5,40.5 C 216.338,40.8417 216.672,41.5084 216.5,42.5C 215.753,45.1497 214.753,47.8164 213.5,50.5C 212.702,46.8887 213.369,43.5554 215.5,40.5 Z"/></g>
<g><path style="opacity:1" fill="#3c7aaa" d="M 192.5,42.5 C 191.524,43.8149 190.524,45.1482 189.5,46.5C 190.645,47.891 190.645,49.2243 189.5,50.5C 188.167,49.1667 186.833,49.1667 185.5,50.5C 186.311,48.2197 186.311,45.7197 185.5,43C 187.108,42.342 188.275,42.842 189,44.5C 189.71,43.0267 190.876,42.3601 192.5,42.5 Z"/></g>
<g><path style="opacity:1" fill="#3f7baa" d="M 224.5,47.5 C 224.5,46.8333 224.5,46.1667 224.5,45.5C 225.404,44.791 225.737,43.791 225.5,42.5C 227.527,42.3379 229.527,42.5045 231.5,43C 232.059,43.7247 232.392,44.5581 232.5,45.5C 230.88,51.9285 229.547,51.5951 228.5,44.5C 227.205,46.3279 226.205,48.3279 225.5,50.5C 224.614,49.675 224.281,48.675 224.5,47.5 Z"/></g>
<g><path style="opacity:1" fill="#e7f7fa" d="M 137.5,36.5 C 137.938,36.4346 138.272,36.6012 138.5,37C 137.376,37.2492 136.376,37.7492 135.5,38.5C 136.728,40.1759 138.061,40.5092 139.5,39.5C 140.833,39.5 141.5,40.1667 141.5,41.5C 141.328,42.4916 141.662,43.1583 142.5,43.5C 140.558,47.0563 141.391,49.3896 145,50.5C 149.176,49.116 150.343,46.4493 148.5,42.5C 149.718,41.8386 151.051,41.1719 152.5,40.5C 151.624,39.7492 150.624,39.2492 149.5,39C 151.956,38.0539 153.956,38.5539 155.5,40.5C 159.783,41.4922 164.116,41.8256 168.5,41.5C 168.148,44.4284 167.482,47.2617 166.5,50C 167.332,50.6877 167.998,50.521 168.5,49.5C 168.994,47.9745 169.661,46.6412 170.5,45.5C 170.5,45.8333 170.5,46.1667 170.5,46.5C 170.579,47.9305 170.246,49.2638 169.5,50.5C 166.02,51.8056 162.687,51.8056 159.5,50.5C 161.331,49.9478 162.997,49.9478 164.5,50.5C 165.48,47.9135 165.813,45.2469 165.5,42.5C 163.25,42.1814 161.25,42.6814 159.5,44C 164.627,44.4741 164.627,45.4741 159.5,47C 158.748,47.6708 158.414,48.5041 158.5,49.5C 157.833,49.8333 157.167,50.1667 156.5,50.5C 157.265,47.9039 157.599,45.2372 157.5,42.5C 155.167,42.5 152.833,42.5 150.5,42.5C 150.187,45.2469 150.52,47.9135 151.5,50.5C 152.205,48.3279 153.205,46.3279 154.5,44.5C 155.225,46.7187 155.558,48.7187 155.5,50.5C 155.762,51.9778 155.429,53.3112 154.5,54.5C 150.624,51.923 146.79,51.2564 143,52.5C 142.333,51.8333 141.667,51.1667 141,50.5C 139.172,51.7525 137.339,51.7525 135.5,50.5C 135.585,51.9953 134.919,52.9953 133.5,53.5C 130.96,51.8611 128.793,52.1944 127,54.5C 125.915,53.2644 125.082,51.9311 124.5,50.5C 126.5,50.5 128.5,50.5 130.5,50.5C 130.674,48.139 131.007,45.8056 131.5,43.5C 129.483,42.126 127.483,42.2926 125.5,44C 126.793,44.49 128.127,44.6567 129.5,44.5C 128.359,45.339 127.026,46.0057 125.5,46.5C 124.614,47.325 124.281,48.325 124.5,49.5C 123.732,48.7375 123.232,47.7375 123,46.5C 122.79,48.0581 122.29,49.3915 121.5,50.5C 118.222,51.3901 114.889,52.3901 111.5,53.5C 111.5,54.5 111.5,55.5 111.5,56.5C 111.167,56.5 110.833,56.5 110.5,56.5C 110.799,54.396 110.466,52.396 109.5,50.5C 107.929,51.3094 106.262,51.6427 104.5,51.5C 106.744,50.6991 108.744,49.3657 110.5,47.5C 112.296,50.6999 114.629,51.1999 117.5,49C 112.459,47.9924 112.792,47.4924 118.5,47.5C 118.634,45.7085 118.301,44.0418 117.5,42.5C 118.007,41.1411 119.007,40.1411 120.5,39.5C 119.758,38.7132 118.925,38.0465 118,37.5C 116.035,38.885 114.202,38.7184 112.5,37C 116.091,36.2114 119.591,36.3781 123,37.5C 123.667,36.8333 124.333,36.1667 125,35.5C 127.039,37.3708 128.539,39.0375 129.5,40.5C 131.111,39.6798 131.778,38.3464 131.5,36.5C 133.5,36.5 135.5,36.5 137.5,36.5 Z"/></g>
<g><path style="opacity:1" fill="#3874a7" d="M 131.5,43.5 C 131.007,45.8056 130.674,48.139 130.5,50.5C 128.5,50.5 126.5,50.5 124.5,50.5C 124.5,50.1667 124.5,49.8333 124.5,49.5C 124.281,48.325 124.614,47.325 125.5,46.5C 127.026,46.0057 128.359,45.339 129.5,44.5C 129.842,43.6618 130.508,43.3284 131.5,43.5 Z"/></g>
<g><path style="opacity:1" fill="#3a79ab" d="M 148.5,42.5 C 150.343,46.4493 149.176,49.116 145,50.5C 141.391,49.3896 140.558,47.0563 142.5,43.5C 144.379,42.6586 146.379,42.3253 148.5,42.5 Z"/></g>
<g><path style="opacity:1" fill="#3c7ab1" d="M 121.5,50.5 C 120.275,49.8478 119.608,48.6811 119.5,47C 119.175,42.843 120.842,41.6763 124.5,43.5C 121.907,45.0708 120.907,47.4041 121.5,50.5 Z"/></g>
<g><path style="opacity:1" fill="#3972a4" d="M 138.5,42.5 C 139.586,42.62 140.253,43.2867 140.5,44.5C 140.14,46.6079 139.473,48.6079 138.5,50.5C 137.795,47.911 137.795,45.2443 138.5,42.5 Z"/></g>
<g><path style="opacity:1" fill="#3775a6" d="M 159.5,50.5 C 159.5,49.8333 159.167,49.5 158.5,49.5C 158.414,48.5041 158.748,47.6708 159.5,47C 164.627,45.4741 164.627,44.4741 159.5,44C 161.25,42.6814 163.25,42.1814 165.5,42.5C 165.813,45.2469 165.48,47.9135 164.5,50.5C 162.997,49.9478 161.331,49.9478 159.5,50.5 Z"/></g>
<g><path style="opacity:1" fill="#3b7aab" d="M 156.5,50.5 C 156.167,50.5 155.833,50.5 155.5,50.5C 155.558,48.7187 155.225,46.7187 154.5,44.5C 153.205,46.3279 152.205,48.3279 151.5,50.5C 150.52,47.9135 150.187,45.2469 150.5,42.5C 152.833,42.5 155.167,42.5 157.5,42.5C 157.599,45.2372 157.265,47.9039 156.5,50.5 Z"/></g>
<g><path style="opacity:1" fill="#d8f9fb" d="M 144.5,44.5 C 146.176,45.1834 146.843,46.5168 146.5,48.5C 145.5,48.5 144.5,48.5 143.5,48.5C 143.433,47.0413 143.766,45.7079 144.5,44.5 Z"/></g>
<g><path style="opacity:1" fill="#3279b2" d="M 135.5,50.5 C 134.5,50.5 133.5,50.5 132.5,50.5C 132.75,46.8979 133.75,43.5646 135.5,40.5C 136.415,41.3279 137.081,42.3279 137.5,43.5C 135.827,45.5225 135.16,47.8559 135.5,50.5 Z"/></g>
<g><path style="opacity:1" fill="#38708c" d="M 131.5,43.5 C 130.508,43.3284 129.842,43.6618 129.5,44.5C 128.127,44.6567 126.793,44.49 125.5,44C 127.483,42.2926 129.483,42.126 131.5,43.5 Z"/></g>
<g><path style="opacity:1" fill="#3c77a2" d="M 139.5,39.5 C 140.833,39.5 141.5,40.1667 141.5,41.5C 140.167,41.5 139.5,40.8333 139.5,39.5 Z"/></g>
</svg>
